<?xml version="1.0" encoding="utf-8"?>
<!-- Generator: Adobe Illustrator 25.4.1, SVG Export Plug-In . SVG Version: 6.00 Build 0)  -->
<svg version="1.1" id="Layer_1" xmlns="http://www.w3.org/2000/svg" xmlns:xlink="http://www.w3.org/1999/xlink" x="0px" y="0px"
	 viewBox="0 0 1000 1000" style="enable-background:new 0 0 1000 1000;" xml:space="preserve">
<style type="text/css">
	.st0{fill:#AC3834;}
</style>
<g>
	<path class="st0" d="M494.06,26.83c-262.34,0-475,212.53-475,474.87s212.66,475,475,475s475-212.66,475-475
		S756.4,26.83,494.06,26.83z M494.06,676.03c-96.23,0-174.33-78.1-174.33-174.33s78.1-174.33,174.33-174.33
		s174.33,78.1,174.33,174.33S590.28,676.03,494.06,676.03z"/>
	<path class="st0" d="M494.06,102.7c-220.43,0-399.11,178.58-399.11,399.01s178.69,399.12,399.11,399.12
		s399.11-178.69,399.11-399.12S714.49,102.7,494.06,102.7z M494.06,648.19c-80.85,0-146.48-65.62-146.48-146.48
		s65.62-146.48,146.48-146.48s146.48,65.62,146.48,146.48S574.91,648.19,494.06,648.19z"/>
</g>
</svg>
