<svg width="24" height="24" viewBox="0 0 24 24" fill="none" xmlns="http://www.w3.org/2000/svg">
<path fill-rule="evenodd" clip-rule="evenodd" d="M12 24C18.6274 24 24 18.6274 24 12C24 5.37258 18.6274 0 12 0C5.37258 0 0 5.37258 0 12C0 18.6274 5.37258 24 12 24ZM17.2131 9.88226C17.7004 9.21228 17.5522 8.27415 16.8823 7.7869C16.2123 7.29964 15.2742 7.44776 14.7869 8.11774L11.2867 12.9306L8.85584 11.2418C8.17548 10.7691 7.24078 10.9375 6.76811 11.6178C6.29545 12.2982 6.46381 13.2329 7.14416 13.7056L10.7805 16.2319C11.4505 16.6973 12.3696 16.542 12.8495 15.8823L17.2131 9.88226Z" fill="#58CACA"/>
</svg>
