<svg width="24" height="24" viewBox="0 0 24 24" fill="none" xmlns="http://www.w3.org/2000/svg">
<path d="M12 0C5.38105 0 0 5.38105 0 12C0 18.6189 5.38105 24 12 24C18.6189 24 24 18.6189 24 12C24 5.38105 18.6189 0 12 0ZM17.0274 14.8042C17.6337 15.4105 17.6337 16.3958 17.0274 17.0274C16.7242 17.3305 16.32 17.4821 15.9158 17.4821C15.5116 17.4821 15.1074 17.3305 14.8042 17.0274L12 14.2232L9.19579 17.0274C8.89263 17.3305 8.48842 17.4821 8.08421 17.4821C7.68 17.4821 7.27579 17.3305 6.97263 17.0274C6.36632 16.4211 6.36632 15.4358 6.97263 14.8042L9.77684 12L6.97263 9.19579C6.36632 8.58947 6.36632 7.60421 6.97263 6.97263C7.57895 6.36632 8.56421 6.36632 9.19579 6.97263L12 9.77684L14.8042 6.97263C15.4105 6.36632 16.3958 6.36632 17.0274 6.97263C17.6337 7.57895 17.6337 8.56421 17.0274 9.19579L14.2232 12L17.0274 14.8042Z" fill="#E71D36"/>
</svg>
