<svg width="24" height="24" viewBox="0 0 24 24" fill="none" xmlns="http://www.w3.org/2000/svg">
<path fill-rule="evenodd" clip-rule="evenodd" d="M20.4894 20.4894C22.6548 18.3076 24 15.3055 24 11.9918C24 8.67806 22.6548 5.69241 20.4894 3.51059C18.3076 1.34518 15.3055 0 11.9918 0C8.67806 0 5.69241 1.34518 3.51059 3.51059C1.34518 5.69241 0 8.67806 0 11.9918C0 15.3055 1.34518 18.3076 3.51059 20.4894C5.69241 22.6548 8.67806 24 11.9918 24C15.3055 24 18.3076 22.6548 20.4894 20.4894ZM9.49829 17.1265H11.0075V11.1224H9.49829V9.12098H11.9918C12.5496 9.12098 12.9925 9.58031 12.9925 10.1217V17.1265H14.5017V19.1278H9.49829V17.1265V17.1265ZM11.9918 4.87218C12.8284 4.87218 13.501 5.54477 13.501 6.38141C13.501 7.20164 12.8284 7.87423 11.9918 7.87423C11.1716 7.87423 10.499 7.20164 10.499 6.38141C10.499 5.54477 11.1716 4.87218 11.9918 4.87218Z" fill="#24A2E5"/>
</svg>
