<svg width="24" height="24" viewBox="0 0 24 24" fill="none" xmlns="http://www.w3.org/2000/svg">
<g clip-path="url(#clip0_1241_17055)">
<path fill-rule="evenodd" clip-rule="evenodd" d="M23.5331 17.0637L15.7245 4.5526C15.3242 3.93829 14.8153 3.39961 14.2219 2.96213C13.5772 2.49812 12.7989 2.24865 12.0002 2.25001C11.1999 2.25163 10.4203 2.50073 9.77162 2.96213C9.18386 3.40602 8.6757 3.9436 8.2682 4.5526L0.436483 17.1228C0.130461 17.6996 -0.0192005 18.3443 0.00197139 18.9947C0.0231433 19.645 0.214432 20.279 0.55734 20.8353C0.865578 21.3376 1.29896 21.7541 1.81644 22.0454C2.33393 22.3367 2.91839 22.4932 3.51448 22.5H20.4859C21.0817 22.4925 21.6657 22.336 22.1831 22.0452C22.7006 21.7545 23.1344 21.339 23.4439 20.8378C23.7907 20.2704 23.9811 19.6236 23.9961 18.9616C24.0111 18.2995 23.8503 17.645 23.5296 17.0629L23.5331 17.0637ZM9.85734 17.1945H11.1431V12.1497H9.85734V10.4757H12.0002C12.1123 10.4761 12.2232 10.4982 12.3265 10.5408C12.4299 10.5834 12.5237 10.6457 12.6025 10.7241C12.6814 10.8025 12.7437 10.8954 12.786 10.9976C12.8282 11.0998 12.8496 11.2092 12.8488 11.3195V17.1954H14.1456V18.8719H9.85734V17.1945ZM12.0002 6.90329C12.3395 6.90329 12.6649 7.03596 12.9048 7.27213C13.1447 7.50829 13.2795 7.8286 13.2795 8.16258C13.2795 8.49657 13.1447 8.81688 12.9048 9.05304C12.6649 9.28921 12.3395 9.42188 12.0002 9.42188C11.6612 9.42188 11.3362 9.28934 11.0965 9.05341C10.8568 8.81749 10.7222 8.4975 10.7222 8.16385C10.7222 7.8302 10.8568 7.51021 11.0965 7.27429C11.3362 7.03836 11.6612 6.90582 12.0002 6.90582V6.90329Z" fill="#FFC233"/>
</g>
<defs>
<clipPath id="clip0_1241_17055">
<rect width="24" height="20.25" fill="white" transform="translate(0 2.25)"/>
</clipPath>
</defs>
</svg>
